PathFileType	4	(X/Y/Z)	testWalking.trc	
DataRate	CameraRate	NumFrames	NumMarkers	Units	OrigDataRate	OrigDataStartFrame	OrigNumFrames
120	120	9	28	mm	120	180	183
Frame#	Time	RSHO			LSHO			C7			RASI			LASI			SACR			RTHAP			RTHAD			RTHLD			RLEPI			RTIAP			RTIAD			RLMAL			RHEEL			RP1MT			RP5MT			RTOE			LTHAP			LTHAD			LTHLD			LLEPI			LTIAP			LTIAD			LLMAL			LHEEL			LP1MT			LP5MT			LTOE			
		X1	Y1	Z1	X2	Y2	Z2	X3	Y3	Z3	X4	Y4	Z4	X5	Y5	Z5	X6	Y6	Z6	X7	Y7	Z7	X8	Y8	Z8	X9	Y9	Z9	X10	Y10	Z10	X11	Y11	Z11	X12	Y12	Z12	X13	Y13	Z13	X14	Y14	Z14	X15	Y15	Z15	X16	Y16	Z16	X17	Y17	Z17	X18	Y18	Z18	X19	Y19	Z19	X20	Y20	Z20	X21	Y21	Z21	X22	Y22	Z22	X23	Y23	Z23	X24	Y24	Z24	X25	Y25	Z25	X26	Y26	Z26	X27	Y27	Z27	X28	Y28	Z28	

46	0.37500	620.20209	1415.57568	171.89232	617.11932	1448.61584	-200.71935	566.11444	1506.27051	-16.55180	677.17535	965.50861	113.20174	649.57922	967.26538	-159.06227	480.29254	998.48456	-6.14085	775.79742	701.92755	64.25865	803.56519	605.59106	75.92738	728.75665	598.48798	145.11909	760.82745	496.83780	119.37160	856.91815	367.13150	55.54300	898.69757	255.74255	54.57732	911.28046	97.77211	93.67525	892.06897	41.33318	34.78915	1048.49219	95.69694	143.51375	1077.69873	125.32694	27.16293	1101.67236	155.37863	78.72581	607.02875	639.27435	-104.68913	569.16742	565.62958	-96.82130	491.97162	596.43500	-159.46140	453.28088	502.13449	-141.05560	421.71796	346.11127	-59.46920	380.54254	245.82442	-55.18098	277.56885	111.98517	-86.15132	219.56590	87.72511	-27.76901	392.57599	33.38296	-126.56094	423.22180	44.42177	-9.73065	462.23102	44.52131	-42.98198	
47	0.38333	632.01917	1413.36145	173.02800	629.15936	1447.33337	-199.48856	577.90411	1504.61658	-15.27420	688.85602	963.89282	113.98232	661.34534	965.36255	-158.86469	492.44391	996.90009	-5.87415	789.01428	703.53632	63.66211	816.47113	606.20203	76.15193	742.33240	598.77582	145.00188	774.12256	495.96338	118.71114	867.00262	363.86978	53.61395	905.80554	251.30859	52.02444	914.65314	93.64740	91.11275	893.46948	37.55433	32.65825	1052.54590	89.32452	140.31755	1082.02942	116.03155	23.37720	1106.14624	146.18443	74.79695	618.05078	637.16479	-105.16360	579.76056	563.65240	-97.43687	502.52966	595.03455	-159.51125	463.29095	500.86365	-141.27028	428.54712	345.22412	-59.86968	385.26477	245.86176	-55.36388	279.05334	114.50183	-87.31343	220.71143	91.34136	-29.00513	392.80707	33.34748	-126.78101	423.46747	44.42972	-9.87537	462.36383	44.26374	-42.97293	
48	0.39167	643.90668	1411.36365	174.24571	640.78497	1445.99902	-198.33264	589.73901	1503.15784	-13.95314	700.72333	962.63470	114.74394	673.46301	963.54034	-158.52203	504.65686	995.50549	-5.67091	802.65039	704.41907	63.37129	829.40454	606.54218	76.57140	756.37384	599.04602	145.13731	787.68207	494.93866	118.02385	876.73712	360.51965	51.63516	912.68414	246.94444	49.46992	917.60522	90.11973	88.49040	894.21185	34.72262	30.79402	1056.59937	83.30683	137.12874	1086.70386	105.82523	19.43138	1110.53308	136.05925	70.80876	629.41608	635.25153	-105.70089	590.80225	561.69714	-97.99187	513.49396	593.62103	-159.60187	473.63257	499.67502	-141.75821	435.78931	344.45813	-60.37299	390.13495	246.06297	-56.38977	281.20587	117.17169	-88.47987	222.21126	95.56139	-30.21217	393.07666	33.27340	-127.03558	423.75574	44.44888	-10.05962	462.57458	43.94122	-42.96207	
49	0.40000	655.89233	1409.55945	175.49565	652.51056	1444.86108	-197.12222	601.66791	1501.90515	-12.57623	712.76178	961.76599	115.48738	685.94965	961.91034	-158.03923	516.94531	994.40875	-5.58537	816.49017	704.58752	63.53981	842.20844	606.58051	77.29512	770.36169	599.18939	145.29475	800.75732	494.04401	117.31779	886.58630	357.59756	50.01907	920.51337	243.77470	47.55998	922.37323	87.93727	86.50374	896.34851	33.93993	29.49931	1061.50342	77.62376	133.95341	1091.72253	96.42862	15.77885	1116.49084	127.18932	67.41800	641.10083	633.46173	-106.37974	602.30255	559.85669	-98.50355	524.86383	592.25861	-159.67775	484.49152	498.54065	-142.12851	443.58008	343.77481	-60.91673	395.43073	246.47011	-57.52055	283.81805	120.18440	-89.70805	224.07547	100.48590	-31.65823	393.18793	33.33311	-127.26673	424.12872	44.44345	-10.25677	462.85950	43.58064	-42.96347	
50	0.40833	667.94489	1407.96521	176.75636	664.63879	1444.13318	-195.79384	613.69873	1500.92407	-11.07545	724.90948	961.32587	116.27043	698.75842	960.42065	-157.47995	529.35510	993.61444	-5.67845	830.69305	704.30347	64.18329	854.76160	606.35107	78.06783	783.68726	599.26202	145.19777	812.74194	493.48193	116.81343	896.68591	355.86865	49.18187	929.23145	242.42670	46.64781	929.60419	86.89109	85.55873	899.86615	35.07295	29.13303	1067.41711	71.17104	130.78600	1096.58679	88.00453	12.43408	1123.71057	120.14066	63.83572	653.12775	631.79474	-106.96085	614.29572	558.20105	-99.18803	536.60706	591.04712	-159.66835	496.19727	497.34570	-142.16673	451.96497	343.12732	-61.35909	401.35327	247.14557	-58.27386	286.85687	123.54482	-91.02203	226.35388	105.83412	-33.40691	393.44830	33.42441	-127.47273	424.58917	44.46062	-10.44257	463.32990	43.20066	-43.03908	
51	0.41667	679.98157	1406.68042	178.10063	677.09180	1443.68567	-194.36870	625.85089	1500.30518	-9.53030	737.08051	961.36932	117.19734	711.92487	959.07086	-156.76045	541.86914	992.99261	-5.97743	845.15045	703.85419	65.26892	866.48090	605.69641	78.72255	795.89301	599.36859	144.75276	823.37646	493.32358	116.92549	906.75336	355.46127	49.10301	937.96960	241.94986	46.42279	937.24139	86.17770	85.53328	903.58673	36.85833	29.63705	1073.56299	63.63761	127.73753	1101.28247	79.48727	9.30740	1131.40540	112.47064	59.39467	665.55365	630.39185	-107.41785	626.86096	556.77045	-99.94351	548.89081	589.95197	-159.55835	508.52698	496.24710	-142.32571	461.02789	342.59247	-61.69984	407.90649	248.06363	-58.90822	290.25604	127.38989	-92.43736	229.31409	111.56686	-34.91586	394.11395	33.36224	-127.60620	425.16254	44.49384	-10.64197	463.86890	42.77391	-43.00381	
52	0.42500	692.03680	1405.74329	179.50362	689.77722	1443.49048	-192.84662	638.21222	1500.10046	-8.02507	749.23816	962.06464	118.27736	725.37341	957.98938	-155.87491	554.49713	992.46387	-6.40726	859.58936	703.42401	66.66843	877.94238	604.98370	79.50719	806.85809	599.51611	144.19615	833.24512	493.69647	117.81718	916.50934	355.67761	49.28539	946.08331	241.04959	46.27957	943.54065	85.37048	86.13997	906.65436	38.82639	30.60577	1078.97266	55.62510	125.11565	1105.45435	70.67026	6.60831	1138.85791	102.61565	55.47430	678.44067	629.27698	-107.76550	640.05194	555.61066	-100.50719	561.85059	588.91266	-159.41757	521.48578	495.40881	-142.62860	470.83734	342.21927	-62.20264	415.13342	249.14946	-59.63185	294.10916	131.75365	-93.67812	233.05011	117.93491	-36.23361	394.92816	33.20895	-127.58832	426.24445	44.36853	-10.83821	464.23657	41.87767	-42.85168	
53	0.43333	704.09595	1405.13489	180.88344	702.26202	1443.64319	-191.34648	650.74359	1500.24329	-6.49231	761.46545	963.41479	119.39235	738.86554	957.25409	-155.01720	567.24060	992.04022	-6.86836	873.57806	703.06580	68.26799	890.39124	604.63135	80.06279	816.93268	599.73773	143.94603	843.63171	494.63745	119.22823	925.77496	355.73026	49.34889	953.49725	239.71487	46.21333	948.66321	84.59068	87.05693	909.24036	40.63973	31.83534	1083.32239	47.83730	123.41829	1108.76929	62.27899	5.13950	1145.03308	92.12165	53.29494	691.92578	628.38879	-107.83743	654.01556	554.63239	-100.79117	575.51819	587.90045	-159.32814	535.54541	494.56345	-142.89706	481.50146	342.01236	-62.87360	423.18304	250.55716	-60.51040	298.66028	136.58763	-94.59792	237.74301	125.08344	-37.36784	395.52368	33.24569	-127.68146	427.86005	44.13779	-10.99149	465.08386	40.91679	-43.06711	
54	0.44167	716.14478	1404.84314	182.29366	714.34912	1444.16394	-189.91245	663.26019	1500.58362	-4.91882	773.90808	965.21039	120.34386	752.34546	956.84973	-154.25217	580.09625	991.76642	-7.25490	886.93195	702.86426	69.84474	902.92712	604.27264	79.94096	826.76758	600.21198	144.19765	855.38623	495.88705	120.74495	934.67249	355.29785	49.53531	960.62427	238.54152	46.59103	952.89124	84.30817	87.95778	911.91534	41.86406	33.16071	1086.50598	41.29945	123.00734	1111.55823	54.64768	5.32191	1150.42737	82.11289	52.90192	706.16235	627.70306	-107.70356	668.97229	553.74512	-100.89486	589.99683	586.83179	-159.27344	550.77533	493.51328	-143.09225	493.19708	341.90469	-63.59940	432.21423	252.25064	-61.47058	304.24445	141.91756	-95.65229	243.43855	133.00403	-38.31755	396.02521	33.50115	-127.99567	429.41986	44.10959	-11.21686	466.64679	40.53065	-43.35669	
